<svg width="268" height="158" viewBox="0 0 268 158" fill="none" xmlns="http://www.w3.org/2000/svg">
<g clip-path="url(#clip0_653_170)">
<path d="M134 0C108.747 0 88.2727 20.3696 88.2727 45.4931C88.2727 70.6166 108.747 90.9862 134 90.9862C159.253 90.9862 179.727 70.6166 179.727 45.4931C179.727 20.3696 159.253 0 134 0ZM132.586 85.5607C111.501 85.5607 94.4118 68.5594 94.4118 47.5823C94.4118 26.6051 111.511 9.60386 132.586 9.60386C153.66 9.60386 170.76 26.6051 170.76 47.5823C170.76 68.5594 153.671 85.5607 132.586 85.5607Z" fill="#E9FBFF"/>
<path d="M56.2806 157.734H56.7199H58.0698H58.8305V125.66H58.0698H56.7199H56.2806H55.5199H54.1807V157.734H55.5199H56.2806Z" fill="#E9FBFF"/>
<path d="M85.2728 157.734H100.433H101.783H102.533V155.389H101.783H100.433H87.8227V125.66H87.062H85.7121H85.2728H84.5121H83.1729V157.734H84.5121H85.2728Z" fill="#E9FBFF"/>
<path d="M27.7278 125.66H25.1779V148.812C25.1779 149.355 25.1886 149.846 25.1993 150.357C24.9636 150.08 24.7601 149.824 24.5029 149.526L3.43919 125.458L3.37491 125.394H1.34996V125.468L1.28568 125.394H0V157.734H4.64988V134.667L4.60702 133.079C4.71416 133.196 4.81059 133.303 4.91773 133.431L26.3886 157.936L26.4529 158H27.7278V157.915H27.7385L27.8028 158H29.8385V125.66H27.7278Z" fill="#E9FBFF"/>
<path d="M162.681 125.618H162.242H161.481H160.142V139.528H140.685V125.618H139.925H138.575H138.136H137.375H136.025V157.691H137.375H138.136H138.575H139.925H140.685V141.83H160.142V157.691H161.481H162.242H162.681H164.031H164.792V125.618H164.031H162.681Z" fill="#E9FBFF"/>
<path d="M193.934 125.394H190.313L176.792 157.414L176.674 157.691H181.495L186.102 146.701H198.048L202.655 157.691H207.616L193.988 125.511L193.934 125.394ZM187.034 144.495L191.834 132.983C191.909 132.823 191.973 132.621 192.048 132.45C192.134 132.642 192.209 132.813 192.316 133.026L197.116 144.495H187.034Z" fill="#E9FBFF"/>
<path d="M236.769 155.346H224.158V125.618H223.397H222.058H221.608H220.848H219.508V157.691H220.848H221.608H236.769H238.119H238.879V155.346H238.119H236.769Z" fill="#E9FBFF"/>
<path d="M267.239 155.346H265.889H253.279V125.618H252.518H251.179H250.729H249.968H248.629V157.691H249.968H250.729H265.889H267.239H268V155.346H267.239Z" fill="#E9FBFF"/>
</g>
<defs>
<clipPath id="clip0_653_170">
<rect width="268" height="158" fill="white"/>
</clipPath>
</defs>
</svg>
