<svg width="314" height="98" viewBox="0 0 314 98" fill="none" xmlns="http://www.w3.org/2000/svg">
<g clip-path="url(#clip0_654_341)">
<path d="M48.9628 0C21.924 0 0 21.9433 0 49.0059C0 76.0685 21.924 98.0118 48.9628 98.0118C76.0017 98.0118 97.9257 76.0685 97.9257 49.0059C97.9257 21.9433 76.0017 0 48.9628 0ZM47.4508 92.1713C24.8771 92.1713 6.57957 73.8577 6.57957 51.2641C6.57957 28.6705 24.8771 10.345 47.4508 10.345C70.0245 10.345 88.3221 28.6587 88.3221 51.2523C88.3221 73.8458 70.0245 92.1595 47.4508 92.1595V92.1713Z" fill="#030025"/>
<path d="M222.666 39.7959H223.197H224.816H225.737V0.851257H224.816H223.197H222.666H221.744H220.126V39.7959H221.744H222.666Z" fill="#030025"/>
<path d="M257.643 39.7959H275.94H277.559H278.48V36.9466H277.559H275.94H260.726V0.851257H259.804H258.174H257.643H256.733H255.103V39.7959H256.733H257.643Z" fill="#030025"/>
<path d="M188.209 0.851262H185.138V28.9543C185.138 29.6045 185.149 30.2193 185.161 30.8223C184.878 30.4794 184.63 30.172 184.322 29.8174L158.902 0.614804L158.831 0.532043H156.374V0.626627L156.303 0.532043H154.768V39.7959H160.379V11.7874L160.331 9.86031C160.461 10.0022 160.568 10.1322 160.709 10.2859L186.614 40.0323L186.685 40.1151H188.221V40.0205H188.232L188.303 40.1151H190.76V0.851262H188.221H188.209Z" fill="#030025"/>
<path d="M186.921 57.7194H186.39H185.468H183.85V74.6025H160.367V57.7194H159.445H157.827H157.296H156.374H154.756V96.6522H156.374H157.296H157.827H159.445H160.367V77.4045H183.85V96.6522H185.468H186.39H186.921H188.54H189.461V57.7194H188.54H186.921Z" fill="#030025"/>
<path d="M224.627 57.4474H220.256L203.943 96.3211L203.801 96.6522H209.613L215.177 83.316H229.588L235.152 96.6522H241.129L224.686 57.5893L224.627 57.4474ZM216.299 80.6321L222.099 66.6575C222.182 66.4565 222.276 66.22 222.359 66.0072C222.465 66.2437 222.56 66.4447 222.678 66.7048L228.478 80.6203H216.311L216.299 80.6321Z" fill="#030025"/>
<path d="M276.318 93.8029H261.092V57.7194H260.182H258.552H258.021H257.111H255.481V96.6522H257.111H258.021H276.318H277.937H278.858V93.8029H277.937H276.318Z" fill="#030025"/>
<path d="M313.079 93.8029H311.448H296.234V57.7194H295.324H293.694H293.163H292.241H290.623V96.6522H292.241H293.163H311.448H313.079H314V93.8029H313.079Z" fill="#030025"/>
</g>
<defs>
<clipPath id="clip0_654_341">
<rect width="314" height="98" fill="white"/>
</clipPath>
</defs>
</svg>
